<svg width="221" height="39" viewBox="0 0 221 39" fill="none" xmlns="http://www.w3.org/2000/svg">
<path d="M0 7.28316L32.1408 0L42.19 31.7168L10.0492 39L0 7.28316Z" fill="white"/>
<path d="M4.92569 10.4027L30.5248 4.60191L34.968 18.6254L9.3689 24.4262L4.92569 10.4027Z" fill="#CAEFF8"/>
<path d="M34.9414 24.0708H40.5988V27.69H32.4341C31.0197 26.4004 29.9482 24.7676 29.2196 22.7916C28.491 20.8156 28.1267 18.7876 28.1267 16.7076C28.1267 14.6068 28.5338 12.5892 29.3482 10.6548C30.1625 8.7204 31.3733 7.1188 32.9805 5.85H40.5988V9.594H34.9414C34.3627 10.2388 33.8591 11.2788 33.4305 12.714C33.0234 14.1492 32.8198 15.522 32.8198 16.8324C32.8198 18.1428 33.0234 19.5156 33.4305 20.9508C33.8591 22.386 34.3627 23.426 34.9414 24.0708Z" fill="#B455FC"/>
<path d="M48.1719 27.69H44.7967C43.8538 26.5252 43.2109 25.3604 42.8681 24.1956C42.5252 23.0308 42.3537 21.5748 42.3537 19.8276V11.7468H46.629V20.1396C46.629 22.0324 47.0147 23.4572 47.7862 24.414H50.7757V11.7468H55.0509V27.69H51.6757L51.0971 26.5668C50.2828 27.3156 49.3077 27.69 48.1719 27.69Z" fill="black"/>
<path d="M57.8334 27.69V11.7468H60.8872L61.6908 13.4316C62.548 12.3084 63.6302 11.7468 64.9374 11.7468H66.1911V15.9276H62.1087V27.69H57.8334Z" fill="black"/>
<path d="M68.0349 27.69V11.7468H72.278V27.69H68.0349ZM68.0349 5.85H72.278V10.062H68.0349V5.85Z" fill="black"/>
<path d="M84.8072 27.69H77.7996C75.6566 25.7556 74.5851 23.114 74.5851 19.7652C74.5851 18.0804 74.8209 16.614 75.2923 15.366C75.7852 14.118 76.5567 12.9116 77.6067 11.7468H85.1286C86.243 12.9948 87.0037 14.2116 87.4109 15.3972C87.8181 16.562 88.0216 18.018 88.0216 19.7652C88.0216 23.114 86.9502 25.7556 84.8072 27.69ZM80.0819 24.414H82.5249C83.2964 22.958 83.6821 21.3044 83.6821 19.4532C83.6821 17.602 83.2856 16.1252 82.4927 15.0228H80.0819C79.3104 16.0836 78.9247 17.5916 78.9247 19.5468C78.9247 21.4812 79.3104 23.1036 80.0819 24.414Z" fill="black"/>
<path d="M91.4277 11.7468H98.5317V15.0228H93.5171L96.5709 19.422C97.9424 21.3148 98.7032 22.6148 98.8532 23.322C98.9389 23.6548 98.9818 23.998 98.9818 24.3516C98.9818 25.8284 98.4139 26.9412 97.2781 27.69H89.0812V24.414H94.9637L91.5242 19.5156C91.3742 19.2868 91.1384 18.9644 90.817 18.5484C90.517 18.1324 90.2812 17.7996 90.1098 17.55C89.9384 17.2796 89.8205 17.082 89.7562 16.9572C89.6919 16.8324 89.6062 16.6764 89.499 16.4892C89.3919 16.2812 89.3169 16.1044 89.274 15.9588C89.1883 15.5636 89.1455 15.2412 89.1455 14.9916C89.1455 13.4732 89.9062 12.3916 91.4277 11.7468Z" fill="black"/>
<path d="M101.059 27.69V11.7468H105.302V27.69H101.059ZM101.059 5.85H105.302V10.062H101.059V5.85Z" fill="black"/>
<path d="M109.023 20.7324V15.0228H106.805V11.7468H109.023V7.41H113.298V11.7468H115.934V15.0228H113.298V21.7308C113.298 22.9996 113.523 23.894 113.974 24.414H115.934V27.69H111.37C110.234 26.6708 109.548 25.5684 109.313 24.3828C109.12 23.3844 109.023 22.1676 109.023 20.7324Z" fill="black"/>
<path d="M117.662 18.9228V11.7468H121.938V18.954C121.938 20.7636 122.313 22.2716 123.063 23.478H124.959C125.666 22.2924 126.02 20.7844 126.02 18.954V11.7468H130.295V18.7044C130.295 20.2644 130.081 21.6372 129.652 22.8228C129.245 24.0084 128.57 25.35 127.627 26.8476L125.474 30.2484C125.088 30.8932 124.681 31.3716 124.252 31.6836C123.823 31.9956 123.266 32.2244 122.581 32.37H117.502V29.094H120.973C121.423 28.9692 121.798 28.7508 122.098 28.4388C122.398 28.1268 122.709 27.6796 123.031 27.0972L123.223 26.754H121.005C119.977 25.9428 119.162 24.8508 118.562 23.478C117.962 22.0844 117.662 20.566 117.662 18.9228Z" fill="black"/>
<path d="M144.497 24.0708H150.155V27.69H141.99C140.576 26.4004 139.504 24.7676 138.775 22.7916C138.047 20.8156 137.683 18.7876 137.683 16.7076C137.683 14.6068 138.09 12.5892 138.904 10.6548C139.718 8.7204 140.929 7.1188 142.536 5.85H150.155V9.594H144.497C143.919 10.2388 143.415 11.2788 142.986 12.714C142.579 14.1492 142.376 15.522 142.376 16.8324C142.376 18.1428 142.579 19.5156 142.986 20.9508C143.415 22.386 143.919 23.426 144.497 24.0708Z" fill="#B455FC"/>
<path d="M159.785 20.4828H156.346C155.896 21.0236 155.671 21.6996 155.671 22.5108C155.671 23.322 155.906 23.9564 156.378 24.414H159.785V20.4828ZM152.874 11.7468H160.846C162.132 12.4956 162.978 13.3588 163.385 14.3364C163.792 15.2932 163.996 16.6036 163.996 18.2676V22.9476C163.996 24.674 164.039 26.2548 164.125 27.69H160.46L159.882 26.5668C159.046 27.3156 157.867 27.69 156.346 27.69H154.32C152.499 26.5252 151.588 24.8508 151.588 22.6668C151.588 20.462 152.52 18.7252 154.385 17.4564H157.406C158.242 17.4564 159.024 17.706 159.753 18.2052V16.6452C159.753 15.834 159.389 15.2932 158.66 15.0228H152.874V11.7468Z" fill="black"/>
<path d="M173.897 11.7468H177.304C178.247 12.9116 178.89 14.0764 179.233 15.2412C179.576 16.406 179.747 17.862 179.747 19.6092V27.69H175.472V19.2972C175.472 17.3212 175.193 15.8964 174.636 15.0228H171.036V27.69H166.761V11.7468H170.104L170.682 12.87C171.154 12.454 171.593 12.1628 172 11.9964C172.429 11.83 173.061 11.7468 173.897 11.7468Z" fill="black"/>
<path d="M191.587 27.69H185.64C184.612 26.8788 183.797 25.8076 183.197 24.4764C182.597 23.1452 182.297 21.6684 182.297 20.046V11.7468H186.572V19.9212C186.572 21.7516 186.926 23.2492 187.633 24.414H189.594C190.301 23.1868 190.655 21.6996 190.655 19.9524V11.7468H194.93V19.89C194.93 21.5332 194.63 23.0412 194.03 24.414C193.43 25.7868 192.616 26.8788 191.587 27.69Z" fill="black"/>
<path d="M204.863 20.4828H201.424C200.974 21.0236 200.749 21.6996 200.749 22.5108C200.749 23.322 200.984 23.9564 201.456 24.414H204.863V20.4828ZM197.952 11.7468H205.924C207.21 12.4956 208.056 13.3588 208.463 14.3364C208.87 15.2932 209.074 16.6036 209.074 18.2676V22.9476C209.074 24.674 209.117 26.2548 209.203 27.69H205.538L204.96 26.5668C204.124 27.3156 202.945 27.69 201.424 27.69H199.398C197.577 26.5252 196.666 24.8508 196.666 22.6668C196.666 20.462 197.598 18.7252 199.463 17.4564H202.484C203.32 17.4564 204.102 17.706 204.831 18.2052V16.6452C204.831 15.834 204.467 15.2932 203.738 15.0228H197.952V11.7468Z" fill="black"/>
<path d="M213.446 11.7468H220.55V15.0228H215.535L218.589 19.422C219.961 21.3148 220.721 22.6148 220.871 23.322C220.957 23.6548 221 23.998 221 24.3516C221 25.8284 220.432 26.9412 219.296 27.69H211.099V24.414H216.982L213.542 19.5156C213.392 19.2868 213.157 18.9644 212.835 18.5484C212.535 18.1324 212.299 17.7996 212.128 17.55C211.957 17.2796 211.839 17.082 211.774 16.9572C211.71 16.8324 211.624 16.6764 211.517 16.4892C211.41 16.2812 211.335 16.1044 211.292 15.9588C211.207 15.5636 211.164 15.2412 211.164 14.9916C211.164 13.4732 211.924 12.3916 213.446 11.7468Z" fill="black"/>
</svg>
